<svg xmlns="http://www.w3.org/2000/svg" id="prefix__CRC_VOTING_ICON_WHITE" width="18.623" height="18.037" data-name="CRC VOTING ICON WHITE" viewBox="0 0 18.623 18.037">
    <path id="prefix__CRC_VOTING_ICON_WHITE-2" d="M-3010.878-51.244a6.31 6.31 0 0 0-6.186-6.3c0-.026-.007-.051-.012-.077a3.171 3.171 0 0 0-.463-1.165 3.17 3.17 0 0 0-2.605-1.46h-.306l-.118.011h-.033c-.063.008-.126.017-.19.028a3.187 3.187 0 0 0-2.583 2.684 6.31 6.31 0 0 0-6.127 6.3 6.31 6.31 0 0 0 6.186 6.3c0 .026.007.051.012.077a3.185 3.185 0 0 0 .463 1.165 3.17 3.17 0 0 0 2.605 1.46h.307l.118-.012h.033c.063-.008.127-.017.19-.028a3.187 3.187 0 0 0 2.583-2.684 6.309 6.309 0 0 0 6.126-6.299zM-3022-55.9a2.125 2.125 0 0 1 .629-2.938 2.119 2.119 0 0 1 1.6-.294 2.118 2.118 0 0 1 1.337.923 2.125 2.125 0 0 1-.629 2.938 2.117 2.117 0 0 1-1.6.294A2.118 2.118 0 0 1-3022-55.9zm3.615 9.344a2.124 2.124 0 0 1-.629 2.938 2.118 2.118 0 0 1-1.6.294 2.117 2.117 0 0 1-1.336-.923 2.124 2.124 0 0 1 .629-2.938 2.119 2.119 0 0 1 1.6-.294 2.116 2.116 0 0 1 1.338.922zm1.349.543a3.183 3.183 0 0 0-.454-1.12 3.17 3.17 0 0 0-2.608-1.46h-.305l-.119.012h-.032c-.063.008-.126.017-.19.028a3.187 3.187 0 0 0-2.563 2.561 5.24 5.24 0 0 1-5.129-5.232 5.24 5.24 0 0 1 5.086-5.231 3.187 3.187 0 0 0 .453 1.12 3.171 3.171 0 0 0 2.608 1.46h.305l.118-.012h.032c.063-.008.126-.017.19-.028a3.188 3.188 0 0 0 2.563-2.561 5.24 5.24 0 0 1 5.128 5.232 5.24 5.24 0 0 1-5.081 5.231z" data-name="CRC VOTING ICON WHITE" transform="translate(3029.502 60.247)" style="fill:#fff"/>
</svg>
