<svg xmlns="http://www.w3.org/2000/svg" id="prefix__DAPP_BROWSER_ICON_WHITE" width="18.352" height="18.466" data-name="DAPP BROWSER ICON WHITE" viewBox="0 0 18.352 18.466">
    <defs>
        <style>
            .prefix__cls-1{fill:#fff}
        </style>
    </defs>
    <path id="prefix__Path_19" d="M369.27 10328.59l6.592 3.722a3.64 3.64 0 0 0 1.727.411h.062a3.6 3.6 0 0 0 1.674-.414l6.589-3.719a1.455 1.455 0 0 0 .853-1.232v-.018a1.459 1.459 0 0 0-.835-1.223h-.008a.436.436 0 1 0-.455.744.185.185 0 0 0 .021.012c.254.146.406.324.406.479s-.151.336-.4.479l-6.584 3.72a2.989 2.989 0 0 1-2.617 0l-6.6-3.723c-.254-.146-.4-.325-.4-.479s.151-.336.4-.477a.436.436 0 0 0 .186-.587.436.436 0 0 0-.589-.187.087.087 0 0 0-.019.011 1.452 1.452 0 0 0-.851 1.23v.018a1.454 1.454 0 0 0 .848 1.233z" class="prefix__cls-1" data-name="Path 19" transform="translate(-368.417 -10318.087)"/>
    <path id="prefix__Path_20" d="M385.918 10369.873a.391.391 0 0 0-.077-.034l-.11-.05v.026a.46.46 0 0 0-.131.013.432.432 0 0 0-.27.2.438.438 0 0 0 .144.6l.023.01c.254.146.406.326.406.48s-.151.335-.4.478l-6.584 3.721a2.982 2.982 0 0 1-2.617 0l-6.6-3.723c-.254-.145-.405-.323-.405-.478s.151-.336.4-.476a.437.437 0 0 0-.4-.776l-.02.013a1.454 1.454 0 0 0-.85 1.23v.017a1.454 1.454 0 0 0 .853 1.231l6.592 3.721a3.571 3.571 0 0 0 1.727.411h.062a3.583 3.583 0 0 0 1.674-.413l6.589-3.719a1.456 1.456 0 0 0 .853-1.231v-.017a1.456 1.456 0 0 0-.859-1.234z" class="prefix__cls-1" data-name="Path 20" transform="translate(-368.423 -10358.023)"/>
    <path id="prefix__Path_21" d="M369.277 10241.077l6.592 3.723a3.6 3.6 0 0 0 1.658.409h.069a3.6 3.6 0 0 0 1.736-.409l6.588-3.719a1.456 1.456 0 0 0 .853-1.231v-.019a1.456 1.456 0 0 0-.851-1.229l-6.6-3.725a3.967 3.967 0 0 0-3.459 0l-6.589 3.719a1.454 1.454 0 0 0-.853 1.23v.017a1.454 1.454 0 0 0 .856 1.234zm.019-1.239c0-.156.151-.336.4-.478l6.588-3.721a3.009 3.009 0 0 1 2.618 0l6.59 3.723c.254.144.406.323.406.478s-.128.307-.346.444l-6.645 3.754a3.146 3.146 0 0 1-2.62 0l-6.591-3.719c-.249-.148-.396-.327-.396-.481z" class="prefix__cls-1" data-name="Path 21" transform="translate(-368.423 -10234.48)"/>
</svg>
