<svg xmlns="http://www.w3.org/2000/svg" id="prefix__DPOS_VOTING_ICON_WHITE" width="21.239" height="21.497" data-name="DPOS VOTING ICON WHITE" viewBox="0 0 21.239 21.497">
    <path id="prefix__DPOS_VOTING_ICON_WHITE-2" d="M406.376 9166.691a2.806 2.806 0 0 0-5.538.07l-4.419.063a5.6 5.6 0 0 0-1.226-3.184l3.316-3.411a2.878 2.878 0 1 0-.666-.661l-3.3 3.392a5.6 5.6 0 0 0-3.461-1.423l-.066-4.677a2.88 2.88 0 1 0-.938 0l.067 4.707a5.622 5.622 0 1 0 6.248 6.192l4.445-.063a2.813 2.813 0 0 0 5.535-1.009zm-8.1-9.169a1.875 1.875 0 1 1 1.441 2.227 1.874 1.874 0 0 1-1.445-2.227zm-9.335-2.407a1.875 1.875 0 1 1 2.593.556 1.876 1.876 0 0 1-2.597-.556zm1.87 16.6a4.562 4.562 0 0 1-.643-9.078v.053a.556.556 0 0 1 .239-.053h.4a.7.7 0 0 1 .092.008.766.766 0 0 1 .079-.008.865.865 0 0 1 .126.008v-.044a4.562 4.562 0 0 1-.294 9.114zm13.818-2.95a1.875 1.875 0 1 1 .556-2.594 1.876 1.876 0 0 1-.56 2.596z" data-name="DPOS VOTING ICON WHITE" transform="translate(-385.184 -9151.28)" style="fill:#fff"/>
</svg>
