<svg xmlns="http://www.w3.org/2000/svg" id="prefix__FRIENDS_ICON_WHITE" width="18.848" height="18.849" data-name="FRIENDS ICON WHITE" viewBox="0 0 18.848 18.849">
    <defs>
        <style>
            .prefix__cls-1{fill:#fff}
        </style>
    </defs>
    <path id="prefix__Path_13" d="M426.532 9880.2a4.6 4.6 0 1 1 4.6-4.6 4.6 4.6 0 0 1-4.6 4.6zm0-8.364a3.765 3.765 0 1 0 3.765 3.766 3.77 3.77 0 0 0-3.765-3.768z" class="prefix__cls-1" data-name="Path 13" transform="translate(-417.108 -9871)"/>
    <path id="prefix__Path_14" d="M368.689 9988.613a.418.418 0 0 1-.417-.418 9.427 9.427 0 0 1 5.661-8.638.409.409 0 0 1 .166-.035.422.422 0 0 1 .36.2 3.755 3.755 0 0 0 6.476 0 .421.421 0 0 1 .36-.2.436.436 0 0 1 .166.033 9.429 9.429 0 0 1 5.66 8.639.418.418 0 0 1-.417.418zm5.12-8.076a8.635 8.635 0 0 0-4.681 7.049l-.014.193h17.164l-.014-.193a8.636 8.636 0 0 0-4.681-7.049l-.134-.067-.091.12a4.588 4.588 0 0 1-7.324 0l-.091-.12z" class="prefix__cls-1" data-name="Path 14" transform="translate(-368.272 -9969.765)"/>
</svg>
