<svg xmlns="http://www.w3.org/2000/svg" id="prefix__HOME_ICON_WHITE" width="15.961" height="16.377" data-name="HOME ICON WHITE" viewBox="0 0 15.961 16.377">
    <path id="prefix__HOME_ICON_WHITE-2" d="M395 7735.467a.493.493 0 0 0-.492.492v4.924h-4.742v-4.989a.493.493 0 0 0-.492-.492h-3.524a.493.493 0 0 0-.492.492v2.72a.492.492 0 0 0 .984 0v-2.228h2.539v4.5h-8.266v-8.663l7-5.606 7.181 5.754a.492.492 0 1 0 .616-.768l-7.488-6a.49.49 0 0 0-.616 0l-7.489 6a.49.49 0 0 0-.184.384v9.391a.493.493 0 0 0 .492.492H395a.493.493 0 0 0 .492-.492v-5.417a.493.493 0 0 0-.492-.494z" data-name="HOME ICON WHITE" transform="translate(-379.53 -7725.49)" style="fill:#fff"/>
</svg>
