<svg xmlns="http://www.w3.org/2000/svg" id="prefix__QR_SCANNER_ICON_WHITE" width="14.496" height="13.497" data-name="QR SCANNER ICON WHITE" viewBox="0 0 14.496 13.497">
    <defs>
        <style>
            .prefix__cls-1{fill:#fff}
        </style>
    </defs>
    <path id="prefix__Path_22" d="M392.11 8190.647h-3.29a.008.008 0 0 1-.007-.008v-2.82a.463.463 0 1 0-.925 0v2.82a.934.934 0 0 0 .933.933h3.29a.462.462 0 1 0 0-.925z" class="prefix__cls-1" data-name="Path 22" transform="translate(-387.887 -8178.075)"/>
    <path id="prefix__Path_23" d="M392.11 8063.5h-3.29a.934.934 0 0 0-.933.933v2.821a.463.463 0 0 0 .925 0v-2.821a.007.007 0 0 1 .007-.007h3.29a.463.463 0 1 0 0-.925z" class="prefix__cls-1" data-name="Path 23" transform="translate(-387.887 -8063.5)"/>
    <path id="prefix__Path_24" d="M521.782 8187.356a.464.464 0 0 0-.463.463v2.82a.008.008 0 0 1-.007.008h-3.29a.462.462 0 1 0 0 .925h3.29a.933.933 0 0 0 .933-.933v-2.82a.464.464 0 0 0-.463-.463z" class="prefix__cls-1" data-name="Path 24" transform="translate(-507.748 -8178.075)"/>
    <path id="prefix__Path_25" d="M521.312 8063.5h-3.29a.463.463 0 1 0 0 .925h3.29a.007.007 0 0 1 .007.007v2.821a.463.463 0 0 0 .925 0v-2.821a.934.934 0 0 0-.932-.932z" class="prefix__cls-1" data-name="Path 25" transform="translate(-507.748 -8063.5)"/>
</svg>
