<svg xmlns="http://www.w3.org/2000/svg" id="prefix__SETTINGS_ICON_WHITE" width="19.779" height="19.78" data-name="SETTINGS ICON WHITE" viewBox="0 0 19.779 19.78">
    <defs>
        <style>
            .prefix__cls-1{fill:#fff}
        </style>
    </defs>
    <path id="prefix__Path_15" d="M429.222 8526.622a4.209 4.209 0 1 0 4.209 4.209 4.214 4.214 0 0 0-4.209-4.209zm3.365 4.209a3.365 3.365 0 1 1-3.365-3.364 3.368 3.368 0 0 1 3.365 3.364z" class="prefix__cls-1" data-name="Path 15" transform="translate(-419.333 -8520.941)"/>
    <path id="prefix__Path_16" d="M379.705 8470.79h-.044.044a1.133 1.133 0 0 0-.835-.966l-1.965-.474a.578.578 0 0 1-.341-.321l-.264-.637a.577.577 0 0 1 .019-.445l1.061-1.73a1.116 1.116 0 0 0-.132-1.291l-.9-.9a1.14 1.14 0 0 0-1.272-.112l-1.726 1.059a.563.563 0 0 1-.468.012l-.637-.262a.576.576 0 0 1-.3-.329l-.476-1.972a1.136 1.136 0 0 0-.966-.833s-.271-.029-.663-.029c-.361 0-.613.021-.663.025a1.133 1.133 0 0 0-.966.834l-.473 1.965a.584.584 0 0 1-.322.341l-.636.264a.615.615 0 0 1-.446-.019l-1.73-1.057a1.133 1.133 0 0 0-1.29.132l-.9.9a1.11 1.11 0 0 0-.112 1.271l1.058 1.727a.583.583 0 0 1 .013.468l-.263.638a.581.581 0 0 1-.329.3l-1.97.474a1.135 1.135 0 0 0-.841.968s-.023.27-.023.661c0 .359.02.611.025.662a1.136 1.136 0 0 0 .835.966l1.969.474a.585.585 0 0 1 .337.321l.264.637a.575.575 0 0 1-.019.444l-1.058 1.731a1.114 1.114 0 0 0 .132 1.29l.9.9a1.143 1.143 0 0 0 1.271.11l1.726-1.059a.567.567 0 0 1 .468-.012l.637.263a.575.575 0 0 1 .3.329l.475 1.971a1.133 1.133 0 0 0 .966.833 6.279 6.279 0 0 0 .661.03c.36 0 .613-.021.662-.025a1.132 1.132 0 0 0 .965-.834l.474-1.966a.584.584 0 0 1 .321-.34l.637-.264a.615.615 0 0 1 .446.019l1.73 1.061a1.058 1.058 0 0 0 .552.148 1.118 1.118 0 0 0 .742-.279l.9-.9a1.113 1.113 0 0 0 .114-1.273l-1.058-1.725a.587.587 0 0 1-.013-.47l.263-.636a.574.574 0 0 1 .329-.3l1.97-.476a1.132 1.132 0 0 0 .833-.966s.024-.273.024-.665c.002-.364-.018-.614-.022-.661zm-3.922 2.764l-.245.595a1.417 1.417 0 0 0 .06 1.253l1.058 1.724a.286.286 0 0 1-.009.263l-.858.851a.266.266 0 0 1-.165.052.213.213 0 0 1-.108-.025l-1.732-1.061a1.468 1.468 0 0 0-1.225-.068l-.6.246a1.416 1.416 0 0 0-.84.927l-.474 1.965a.309.309 0 0 1-.225.2h-.012c-.181.013-.373.02-.571.02-.343 0-.576-.021-.58-.021a.31.31 0 0 1-.227-.194l-.475-1.971a1.384 1.384 0 0 0-.818-.914l-.594-.245a1.4 1.4 0 0 0-1.251.061l-1.722 1.057a.345.345 0 0 1-.266-.009l-.855-.857a.278.278 0 0 1-.027-.274l1.061-1.731a1.387 1.387 0 0 0 .069-1.226l-.247-.6a1.413 1.413 0 0 0-.927-.841l-1.965-.473a.312.312 0 0 1-.2-.227v-.01c-.016-.225-.019-.435-.019-.571v-.043c0-.322.021-.537.02-.537a.311.311 0 0 1 .195-.228l1.971-.476a1.4 1.4 0 0 0 .916-.821l.245-.6a1.415 1.415 0 0 0-.06-1.252l-1.058-1.725a.286.286 0 0 1 .009-.263l.856-.85a.3.3 0 0 1 .277-.027l1.732 1.062a1.468 1.468 0 0 0 1.225.068l.6-.246a1.417 1.417 0 0 0 .841-.927l.473-1.966a.308.308 0 0 1 .225-.2h.011c.224-.017.434-.021.571-.021.343 0 .576.021.58.021a.307.307 0 0 1 .227.193l.475 1.972a1.4 1.4 0 0 0 .822.913l.6.246a1.425 1.425 0 0 0 1.252-.061l1.722-1.057a.345.345 0 0 1 .266.009l.855.854a.28.28 0 0 1 .027.275l-1.069 1.737a1.387 1.387 0 0 0-.069 1.226l.247.6a1.413 1.413 0 0 0 .927.841l1.965.474a.309.309 0 0 1 .2.225v.012c.016.223.019.435.019.571 0 .331-.019.559-.021.582a.31.31 0 0 1-.194.225l-1.971.476a1.406 1.406 0 0 0-.92.822z" class="prefix__cls-1" data-name="Path 16" transform="translate(-359.95 -8461.56)"/>
</svg>
