<svg xmlns="http://www.w3.org/2000/svg" id="prefix__WALLET_ICON" width="19.881" height="16.29" data-name="WALLET ICON" viewBox="0 0 19.881 16.29">
    <defs>
        <style>
            .prefix__cls-1{fill:#fff}
        </style>
    </defs>
    <path id="prefix__Path_3" d="M440.923 9529.6h.014a.565.565 0 0 0 .142-.02l6.99-2.125.618 1.817.013.031a.486.486 0 0 0 .91-.309l-.187-.558h.883a.1.1 0 0 1 .1.1v.853a.483.483 0 0 0 .475.481h.005a.486.486 0 0 0 .486-.485v-.849a1.067 1.067 0 0 0-1.065-1.064h-1.213l-.262-.772a.487.487 0 0 0-.6-.306l-7.439 2.262-.014.006a.485.485 0 0 0 .141.938z" class="prefix__cls-1" data-name="Path 3" transform="translate(-434.586 -9526.375)"/>
    <path id="prefix__Path_4" d="M395.44 9550.984a.939.939 0 0 0-.649-.322h-.106a.486.486 0 0 0-.439.771.48.48 0 0 0 .317.193.46.46 0 0 0 .127 0h.017a.284.284 0 0 1 0 .029V9552.842h-4.147a.3.3 0 0 1 0-.031v-2.559a.259.259 0 0 1 0-.029.13.13 0 0 1 .03 0h2.81a.741.741 0 0 0 .74-.74v-2.8a.947.947 0 0 0-.878-1H377.539a.72.72 0 0 1-.777-.658.729.729 0 0 1 0-.119v-.036a.721.721 0 0 1 .659-.777.6.6 0 0 1 .118 0h2.026a3.606 3.606 0 0 0 .7-.023.482.482 0 0 0-.15-.939h-2.548a1.678 1.678 0 0 0-1.767 1.578 1.693 1.693 0 0 0 0 .188v11.229a1.677 1.677 0 0 0 1.579 1.768H393.144a.947.947 0 0 0 1-1v-1.488a.489.489 0 0 0-.554-.406.487.487 0 0 0-.406.406v1.5a.284.284 0 0 1 0 .029h-15.646a.721.721 0 0 1-.777-.781v-9.629a.024.024 0 0 1 .011-.021.021.021 0 0 1 .027 0 1.783 1.783 0 0 0 .756.148h15.62v2.584a.028.028 0 0 1-.027.027H390.6a.943.943 0 0 0-1 .877.958.958 0 0 0 0 .123v2.541a.948.948 0 0 0 .878 1h4.197a.946.946 0 0 0 1-.879.957.957 0 0 0 0-.123v-1.141a.937.937 0 0 0-.235-.677z" class="prefix__cls-1" data-name="Path 4" transform="translate(-375.793 -9541.603)"/>
    <path id="prefix__Path_5" d="M544.024 9628.135v.063a.748.748 0 1 0 0-.062z" class="prefix__cls-1" data-name="Path 5" transform="translate(-528.72 -9618.266)"/>
</svg>
