<svg xmlns="http://www.w3.org/2000/svg" id="prefix__Component_226_1" width="500" height="500" data-name="Component 226 – 1" viewBox="0 0 500 500">
    <rect id="prefix__Rectangle_406" width="500" height="500" data-name="Rectangle 406" rx="117" style="fill:#fff"/>
    <g id="prefix__LARGER_CANDIDATE_VOTING_ICON" data-name="LARGER CANDIDATE VOTING ICON" transform="translate(143.877 146.887)">
        <path id="prefix__CRC_VOTING_ICON" d="M6736.052-4461.588a74.416 74.416 0 0 0-45.037-21.94 41.972 41.972 0 0 0-4.539-9.345 42.1 42.1 0 0 0-34.558-19.357h-.942c-.365 0-.73 0-1.111.008-.336.009-.677.024-1.013.045l-.356.021c-.222.009-.436.021-.648.037-.562.041-1.082.095-1.591.151-.144.017-.291.029-.4.041-.919.119-1.739.234-2.518.378a42.217 42.217 0 0 0-32.6 28.435 74.452 74.452 0 0 0-44.558 22.089 74.406 74.406 0 0 0-21.268 52.2 74.346 74.346 0 0 0 21.493 52.438 74.4 74.4 0 0 0 45.037 21.944 42.111 42.111 0 0 0 4.544 9.341 42.091 42.091 0 0 0 34.561 19.361h1.296c.246 0 .5 0 .754-.009.341-.008.677-.032 1.018-.045l.364-.021c.209-.008.41-.024.636-.041.5-.032 1.009-.086 1.521-.147h.037c.155-.017.3-.028.438-.045.914-.11 1.742-.233 2.514-.377a42.222 42.222 0 0 0 32.6-28.436 74.478 74.478 0 0 0 44.558-22.088 74.409 74.409 0 0 0 21.26-52.2 74.377 74.377 0 0 0-21.492-52.438zm-83.653 71.205H6651.354c-.324 0-.656 0-.972.009-.34.008-.685.032-1.021.049l-.378.017c-.209.013-.41.021-.614.041-.587.037-1.132.1-1.555.147-.147.017-.295.033-.446.045-.911.115-1.73.238-2.5.378a42 42 0 0 0-22.522 11.911 42.283 42.283 0 0 0-9.2 14.093 45.537 45.537 0 0 1-25.023-13.093 45.465 45.465 0 0 1-13.123-32.04 45.482 45.482 0 0 1 13-31.912 45.635 45.635 0 0 1 24.811-13.162 42.508 42.508 0 0 0 3.633 6.938 42.093 42.093 0 0 0 34.573 19.37c.242.008.488.008.738.008h.353c.324 0 .652 0 .968-.012.336-.009.677-.029 1.017-.046l.386-.016c.205-.013.41-.025.611-.041.586-.046 1.127-.1 1.558-.152.147-.012.291-.024.435-.049.919-.106 1.738-.233 2.506-.373a41.976 41.976 0 0 0 22.522-11.907 42.259 42.259 0 0 0 9.2-14.1 45.49 45.49 0 0 1 25.023 13.1 45.462 45.462 0 0 1 13.125 32.036 45.458 45.458 0 0 1-13 31.9 45.577 45.577 0 0 1-24.818 13.166 41.382 41.382 0 0 0-3.637-6.941 42.106 42.106 0 0 0-34.604-19.364zm-12.019 49.535a13.178 13.178 0 0 1-1.837-9.984 13.21 13.21 0 0 1 5.766-8.364 13.19 13.19 0 0 1 7.18-2.133 13.031 13.031 0 0 1 2.783.3 13.214 13.214 0 0 1 8.349 5.757 13.207 13.207 0 0 1 1.833 9.987 13.183 13.183 0 0 1-5.766 8.361 13.194 13.194 0 0 1-9.959 1.837 13.181 13.181 0 0 1-8.349-5.761zm21.7-136.272a13.179 13.179 0 0 1 1.833 9.984 13.165 13.165 0 0 1-5.766 8.353 13.135 13.135 0 0 1-9.959 1.845 13.177 13.177 0 0 1-8.344-5.761 13.172 13.172 0 0 1-1.837-9.988 13.155 13.155 0 0 1 5.765-8.356 13.189 13.189 0 0 1 9.964-1.837 13.154 13.154 0 0 1 8.347 5.76z" data-name="CRC VOTING ICON" transform="translate(-6544.915 4512.234)" style="fill:#41f0ad"/>
    </g>
</svg>
