<svg xmlns="http://www.w3.org/2000/svg" id="prefix__Component_221_2" width="500" height="500" data-name="Component 221 – 2" viewBox="0 0 500 500">
    <defs>
        <style>
            .prefix__cls-2{fill:#5aacff}
        </style>
    </defs>
    <path id="prefix__Rectangle_406" d="M0 0H500V500H0z" data-name="Rectangle 406" style="fill:#fff"/>
    <g id="prefix__LARGER_IDENTITY_ICON" data-name="LARGER IDENTITY ICON" transform="translate(145.067 145.44)">
        <path id="prefix__Path_2161" d="M6807.374-3720.573c-3.551-46.744-38.18-84.985-83.336-94.271a105.562 105.562 0 0 0-21.256-2.157 104.47 104.47 0 0 0-73.189 29.836 103.9 103.9 0 0 0-31.482 74.526v28.964a17.19 17.19 0 0 0 17.393 17.359 17.192 17.192 0 0 0 17.387-17.359v-28.964a69.958 69.958 0 0 1 70.009-69.761 69.962 69.962 0 0 1 70.01 69.761v28.964a17.186 17.186 0 0 0 17.381 17.359 17.192 17.192 0 0 0 17.393-17.359v-28.964q-.003-4.003-.31-7.934z" class="prefix__cls-2" data-name="Path 2161" transform="translate(-6598.11 3817)"/>
        <path id="prefix__Path_2162" d="M6790.387-3595.154a40.666 40.666 0 0 1-39.619-31.748 40.682 40.682 0 0 1-1-8.937v-28.961a46.541 46.541 0 0 0-46.52-46.318 46.547 46.547 0 0 0-46.518 46.318v28.964a40.612 40.612 0 0 1-40.541 40.685 17.117 17.117 0 0 0-17.3 17.356 17.114 17.114 0 0 0 17.285 17.362 75.429 75.429 0 0 0 75.33-75.4v-28.967a11.614 11.614 0 0 1 11.74-11.718 11.616 11.616 0 0 1 11.746 11.718v28.964a74.9 74.9 0 0 0 16.158 46.514 75.421 75.421 0 0 0 59.332 28.89 17.235 17.235 0 0 0 17.426-17.362c.002-9.756-7.472-17.222-17.519-17.36z" class="prefix__cls-2" data-name="Path 2162" transform="translate(-6598.471 3769.163)"/>
    </g>
</svg>
