<svg xmlns="http://www.w3.org/2000/svg" id="prefix__Component_224_2" width="500" height="500" data-name="Component 224 – 2" viewBox="0 0 500 500">
    <path id="prefix__Rectangle_406" d="M0 0H500V500H0z" data-name="Rectangle 406" style="fill:#fff"/>
    <g id="prefix__LARGER_NODE_VOTING_ICON" data-name="LARGER NODE VOTING ICON" transform="translate(149.994 151.084)">
        <path id="prefix__Path_2154" d="M6757.032-3033.74a31.485 31.485 0 0 0-29.094 19.438c-10.338 6.639-39.045 5.829-49.006 2.757a44.966 44.966 0 0 0-5.837-14.565c2.506-3.481 18.192-25.276 29.942-28.624a31.345 31.345 0 0 0 13.141 2.875 31.48 31.48 0 0 0 31.484-31.478 31.486 31.486 0 0 0-25.713-30.942 31.683 31.683 0 0 0-5.771-.537 31.481 31.481 0 0 0-31.475 31.479 31.254 31.254 0 0 0 2.705 12.754c-1.821 9.616-21.164 26.777-27.428 30.8a45.143 45.143 0 0 0-15.27-6.632c-2.008-9.447-3.221-39.654 3.1-48.006a31.489 31.489 0 0 0 18.916-28.865 31.484 31.484 0 0 0-31.479-31.482 31.484 31.484 0 0 0-31.479 31.482 31.48 31.48 0 0 0 19.3 29.03c5.206 7.241 4.389 43.274 1.821 47.744a45.3 45.3 0 0 0-35.6 44.25 45.316 45.316 0 0 0 36.185 44.385 68.055 68.055 0 0 1 4.82-23.288 68.055 68.055 0 0 0-4.82 23.288 45.619 45.619 0 0 0 9.116.915 45.3 45.3 0 0 0 44.278-35.745c8.241-3.083 36.038-2.947 48.477.933a31.5 31.5 0 0 0 29.689 20.991 31.481 31.481 0 0 0 31.476-31.479 31.48 31.48 0 0 0-31.478-31.478zm-122.76 43.4c.87-1.853 1.764-3.7 2.7-5.515-.936 1.818-1.829 3.664-2.7 5.516zm3-6.075c13.626-26.257 33.568-48.974 51.858-71.289-18.291 22.316-38.23 45.033-51.859 71.29z" data-name="Path 2154" transform="translate(-6589.287 3154.766)" style="fill:#9c50ff"/>
    </g>
</svg>
