<svg xmlns="http://www.w3.org/2000/svg" id="prefix__Component_318_6" width="29.206" height="29.207" data-name="Component 318 – 6" viewBox="0 0 29.206 29.207">
    <defs>
        <style>
            .prefix__cls-1{fill:#20e3d2}
        </style>
    </defs>
    <g id="prefix__Group_1172" data-name="Group 1172" transform="translate(8.588 10.663)">
        <path id="prefix__Path_2232" d="M193.094 65.346l-.4-.111a.182.182 0 0 0-.153.016.212.212 0 0 0-.1.127L190 73.8a.2.2 0 0 0 .016.16.212.212 0 0 0 .127.1l.4.111a.182.182 0 0 0 .153-.016.212.212 0 0 0 .1-.127l2.433-8.422a.2.2 0 0 0-.016-.16.212.212 0 0 0-.119-.1z" class="prefix__cls-1" data-name="Path 2232" transform="translate(-185.651 -65.225)"/>
        <path id="prefix__Path_2233" d="M3.8 119.307a.206.206 0 0 0-.065-.15l-.326-.326a.205.205 0 0 0-.3 0l-3.04 3.04a.205.205 0 0 0 0 .3l3.04 3.04a.205.205 0 0 0 .3 0l.326-.326a.205.205 0 0 0 0-.3l-2.567-2.565 2.564-2.564a.206.206 0 0 0 .068-.149z" class="prefix__cls-1" data-name="Path 2233" transform="translate(0 -117.542)"/>
        <path id="prefix__Path_2234" d="M360.043 121.867l-3.04-3.04a.205.205 0 0 0-.3 0l-.326.326a.205.205 0 0 0 0 .3l2.564 2.564-2.564 2.564a.205.205 0 0 0 0 .3l.326.326a.205.205 0 0 0 .3 0l3.04-3.04a.205.205 0 0 0 0-.3z" class="prefix__cls-1" data-name="Path 2234" transform="translate(-348.17 -117.539)"/>
    </g>
    <path id="prefix__Path_16" d="M389.12 8475.19h-.064.064a1.675 1.675 0 0 0-1.232-1.427l-2.9-.7a.857.857 0 0 1-.5-.475l-.39-.94a.849.849 0 0 1 .028-.656l1.567-2.557a1.646 1.646 0 0 0-.2-1.905l-1.33-1.325a1.683 1.683 0 0 0-1.878-.165l-2.549 1.564a.836.836 0 0 1-.691.017l-.94-.387a.85.85 0 0 1-.443-.486l-.7-2.911a1.675 1.675 0 0 0-1.426-1.229s-.4-.043-.979-.043c-.533 0-.905.029-.978.036a1.673 1.673 0 0 0-1.426 1.231l-.7 2.9a.867.867 0 0 1-.475.5l-.94.39a.905.905 0 0 1-.658-.029l-2.555-1.559a1.668 1.668 0 0 0-1.9.2l-1.326 1.326a1.638 1.638 0 0 0-.165 1.877l1.562 2.55a.86.86 0 0 1 .019.69l-.388.94a.859.859 0 0 1-.486.445l-2.909.7a1.678 1.678 0 0 0-1.241 1.43s-.034.4-.034.978c0 .529.03.9.036.977a1.678 1.678 0 0 0 1.232 1.427l2.908.7a.856.856 0 0 1 .5.473l.391.94a.85.85 0 0 1-.028.656l-1.562 2.557a1.644 1.644 0 0 0 .195 1.9l1.328 1.327a1.69 1.69 0 0 0 1.877.163l2.549-1.563a.836.836 0 0 1 .691-.018l.94.389a.845.845 0 0 1 .444.485l.7 2.91a1.675 1.675 0 0 0 1.426 1.23 9.386 9.386 0 0 0 .976.045c.532 0 .9-.032.978-.038a1.672 1.672 0 0 0 1.425-1.232l.7-2.9a.862.862 0 0 1 .474-.5l.94-.39a.9.9 0 0 1 .658.028l2.555 1.564a1.578 1.578 0 0 0 .815.221 1.647 1.647 0 0 0 1.095-.413l1.326-1.327a1.643 1.643 0 0 0 .168-1.88l-1.562-2.547a.869.869 0 0 1-.019-.694l.388-.938a.849.849 0 0 1 .485-.443l2.91-.7a1.67 1.67 0 0 0 1.23-1.425c0-.006.036-.4.036-.981-.006-.545-.036-.915-.042-.983zm-5.792 4.08l-.362.877a2.1 2.1 0 0 0 .088 1.852l1.562 2.544a.422.422 0 0 1-.013.388l-1.266 1.257a.384.384 0 0 1-.244.075.3.3 0 0 1-.16-.036l-2.558-1.566a2.165 2.165 0 0 0-1.808-.1l-.88.364a2.085 2.085 0 0 0-1.24 1.368l-.7 2.9a.462.462 0 0 1-.333.294h-.014c-.267.019-.55.028-.843.028-.506 0-.851-.029-.856-.029a.465.465 0 0 1-.335-.287l-.7-2.911a2.05 2.05 0 0 0-1.208-1.351l-.878-.36a1.964 1.964 0 0 0-.826-.177 2.008 2.008 0 0 0-1.021.267l-2.543 1.56a.509.509 0 0 1-.393-.014l-1.262-1.266a.411.411 0 0 1-.04-.405l1.567-2.557a2.047 2.047 0 0 0 .1-1.81l-.364-.879a2.084 2.084 0 0 0-1.369-1.242l-2.9-.7a.463.463 0 0 1-.293-.336v-.014c-.024-.332-.029-.643-.029-.843v-.064c0-.476.03-.794.03-.794a.455.455 0 0 1 .287-.335l2.91-.7a2.076 2.076 0 0 0 1.353-1.214l.362-.88a2.089 2.089 0 0 0-.088-1.849l-1.562-2.546a.422.422 0 0 1 .014-.388l1.263-1.256a.445.445 0 0 1 .408-.039l2.558 1.566a2.165 2.165 0 0 0 1.808.1l.88-.363a2.09 2.09 0 0 0 1.241-1.366l.7-2.9a.454.454 0 0 1 .333-.291.04.04 0 0 1 .016 0c.33-.025.641-.03.844-.03.506 0 .851.032.856.032a.453.453 0 0 1 .335.285l.7 2.912a2.073 2.073 0 0 0 1.214 1.348l.879.363a2.1 2.1 0 0 0 1.848-.091l2.543-1.559a.508.508 0 0 1 .393.013l1.262 1.26a.413.413 0 0 1 .04.406l-1.567 2.559a2.047 2.047 0 0 0-.1 1.81l.364.879a2.091 2.091 0 0 0 1.369 1.242l2.9.7a.453.453 0 0 1 .293.331v.019c.024.328.029.64.029.843 0 .488-.028.824-.031.859a.455.455 0 0 1-.287.33l-2.91.7a2.076 2.076 0 0 0-1.366 1.218z" class="prefix__cls-1" data-name="Path 16" transform="translate(-359.95 -8461.561)"/>
</svg>
