<svg xmlns="http://www.w3.org/2000/svg" id="prefix__users" width="25.179" height="20.402" viewBox="0 0 25.179 20.402">
    <path id="prefix__users-2" d="M16.541 16.364s-6.768 0-9.305 5.922a27.988 27.988 0 0 0 9.305 1.691 27.988 27.988 0 0 0 9.305-1.691c-2.538-5.922-9.305-5.922-9.305-5.922zm0-.844c2.538 0 4.229-2.538 4.229-6.769s-4.229-4.23-4.229-4.23-4.229 0-4.229 4.23S14 15.52 16.541 15.52zM8.33 12.633a2.8 2.8 0 0 0 2.118-.969 12.168 12.168 0 0 1-.326-2.913 3.892 3.892 0 0 1 1.4-3.238 3.643 3.643 0 0 0-3.191-1.937A3.412 3.412 0 0 0 4.847 7.06c0 3.484 1.393 5.574 3.484 5.574zm3.284 2.73l-.114-1.376a9.9 9.9 0 0 0-3.17-.657s-5.574 0-7.663 4.877a23.18 23.18 0 0 0 6.18 1.336 25.285 25.285 0 0 1 4.768-4.179z" data-name="users" transform="translate(-.667 -3.576)" style="fill:#6d74ef"/>
</svg>
