<svg xmlns="http://www.w3.org/2000/svg" id="prefix__Component_234_2" width="19.319" height="19.242" data-name="Component 234 – 2" viewBox="0 0 19.319 19.242">
    <defs>
        <style>
            .prefix__cls-1{fill:#6a71e8}
        </style>
    </defs>
    <path id="prefix__Path_2161" d="M6617.4-3808.111a9.657 9.657 0 0 0-7.682-8.69 9.711 9.711 0 0 0-1.96-.2 9.632 9.632 0 0 0-6.747 2.75 9.577 9.577 0 0 0-2.9 6.87v2.67a1.584 1.584 0 0 0 1.6 1.6 1.585 1.585 0 0 0 1.6-1.6v-2.67a6.449 6.449 0 0 1 6.454-6.431 6.449 6.449 0 0 1 6.454 6.431v2.67a1.585 1.585 0 0 0 1.6 1.6 1.585 1.585 0 0 0 1.6-1.6v-2.67q.009-.367-.019-.73z" class="prefix__cls-1" data-name="Path 2161" transform="translate(-6598.109 3817)"/>
    <path id="prefix__Path_2162" d="M6616.542-3700.429a3.748 3.748 0 0 1-3.652-2.927 3.727 3.727 0 0 1-.093-.824v-2.67a4.29 4.29 0 0 0-4.288-4.27 4.291 4.291 0 0 0-4.289 4.27v2.67a3.744 3.744 0 0 1-3.738 3.751 1.577 1.577 0 0 0-1.594 1.6 1.578 1.578 0 0 0 1.593 1.6 6.954 6.954 0 0 0 6.944-6.951v-2.67a1.071 1.071 0 0 1 1.083-1.08 1.071 1.071 0 0 1 1.083 1.08v2.67a6.9 6.9 0 0 0 1.49 4.288 6.952 6.952 0 0 0 5.47 2.663 1.589 1.589 0 0 0 1.606-1.6 1.584 1.584 0 0 0-1.615-1.6z" class="prefix__cls-1" data-name="Path 2162" transform="translate(-6598.85 3716.471)"/>
</svg>
