<svg xmlns="http://www.w3.org/2000/svg" id="prefix__CRC_VOTING_ICON_WHITE" width="42" height="42" data-name="CRC VOTING ICON WHITE" viewBox="0 0 42 42">
    <circle id="prefix__Ellipse_294" cx="21" cy="21" r="21" data-name="Ellipse 294" style="fill:#41f0ad;opacity:0"/>
    <path id="prefix__CRC_VOTING_ICON_WHITE-2" d="M-3006.879-49.247a7.688 7.688 0 0 0-7.514-7.7c0-.031-.009-.063-.015-.094a3.889 3.889 0 0 0-.562-1.423 3.846 3.846 0 0 0-3.165-1.784h-.186l-.112.005h-.074c-.048 0-.1.009-.144.014h-.04c-.077.009-.154.02-.231.034a3.885 3.885 0 0 0-3.138 3.279 7.688 7.688 0 0 0-7.443 7.7 7.688 7.688 0 0 0 7.514 7.7c0 .031.009.063.014.094a3.9 3.9 0 0 0 .563 1.423 3.845 3.845 0 0 0 3.165 1.784h.187l.112-.006h.074c.048 0 .1-.009.144-.014h.04c.077-.009.154-.02.231-.034a3.884 3.884 0 0 0 3.138-3.279 7.688 7.688 0 0 0 7.442-7.699zm-13.507-5.689a2.6 2.6 0 0 1 .764-3.59 2.562 2.562 0 0 1 1.941-.359 2.573 2.573 0 0 1 1.624 1.127 2.6 2.6 0 0 1-.765 3.59 2.56 2.56 0 0 1-1.941.359 2.573 2.573 0 0 1-1.623-1.127zm4.391 11.416a2.6 2.6 0 0 1-.764 3.59 2.561 2.561 0 0 1-1.941.359 2.572 2.572 0 0 1-1.624-1.127 2.6 2.6 0 0 1 .764-3.59 2.561 2.561 0 0 1 1.941-.359 2.57 2.57 0 0 1 1.624 1.127zm1.638.664a3.9 3.9 0 0 0-.551-1.368 3.846 3.846 0 0 0-3.168-1.784h-.186l-.113.006h-.071c-.048 0-.1.009-.145.014h-.039c-.077.009-.153.02-.23.034a3.883 3.883 0 0 0-3.114 3.129 6.384 6.384 0 0 1-6.23-6.392 6.385 6.385 0 0 1 6.179-6.391 3.909 3.909 0 0 0 .551 1.368 3.848 3.848 0 0 0 3.168 1.784h.185l.113-.006h.072c.048 0 .1-.009.144-.014h.039c.076-.009.153-.02.23-.034a3.884 3.884 0 0 0 3.114-3.129 6.384 6.384 0 0 1 6.23 6.392 6.384 6.384 0 0 1-6.177 6.39z" data-name="CRC VOTING ICON WHITE" transform="translate(3039.113 70.375)"/>
</svg>
