<svg xmlns="http://www.w3.org/2000/svg" width="22.653" height="21.782" viewBox="0 0 22.653 21.782">
    <defs>
        <style>
            .prefix__cls-1{stroke:#000;stroke-width:.3px}
        </style>
    </defs>
    <g id="prefix__DAPP_BROWSER_ICON_WHITE" data-name="DAPP BROWSER ICON WHITE" transform="translate(.151 .166)">
        <path id="prefix__Path_19" d="M369.456 10328.59l8.029 3.722a5.235 5.235 0 0 0 2.1.411h.076a5.164 5.164 0 0 0 2.039-.414l8.025-3.719a1.494 1.494 0 0 0 1.039-1.232v-.018a1.493 1.493 0 0 0-1.017-1.223h-.01a.6.6 0 0 0-.73.143.4.4 0 0 0 .176.6.245.245 0 0 0 .026.012c.309.146.494.324.494.479s-.184.336-.493.479l-8.019 3.72a4.361 4.361 0 0 1-3.188 0l-8.033-3.723c-.309-.146-.493-.325-.493-.479s.184-.336.488-.477a.465.465 0 0 0 .262-.256.361.361 0 0 0-.035-.331.592.592 0 0 0-.717-.187.113.113 0 0 0-.023.011 1.491 1.491 0 0 0-1.036 1.23v.018a1.493 1.493 0 0 0 1.04 1.234z" class="prefix__cls-1" data-name="Path 19" transform="translate(-368.417 -10316.386)"/>
        <path id="prefix__Path_20" d="M389.731 10369.873a.533.533 0 0 0-.093-.034l-.133-.05v.026a.678.678 0 0 0-.16.013.532.532 0 0 0-.329.2.372.372 0 0 0-.064.332.456.456 0 0 0 .239.27l.027.01c.309.146.494.326.494.48s-.184.335-.493.478l-8.019 3.721a4.351 4.351 0 0 1-3.188 0l-8.033-3.723c-.309-.145-.493-.323-.493-.478s.184-.336.488-.476a.4.4 0 0 0 .227-.589.594.594 0 0 0-.715-.187l-.024.013a1.493 1.493 0 0 0-1.036 1.23v.017a1.494 1.494 0 0 0 1.038 1.231l8.029 3.721a5.135 5.135 0 0 0 2.1.411h.076a5.143 5.143 0 0 0 2.039-.413l8.025-3.719a1.5 1.5 0 0 0 1.039-1.231v-.017a1.5 1.5 0 0 0-1.041-1.236z" class="prefix__cls-1" data-name="Path 20" transform="translate(-368.423 -10355.023)"/>
        <path id="prefix__Path_21" d="M369.463 10241.077l8.029 3.723a5.162 5.162 0 0 0 2.02.409h.084a5.186 5.186 0 0 0 2.115-.409l8.024-3.719a1.5 1.5 0 0 0 1.039-1.231v-.019a1.5 1.5 0 0 0-1.036-1.229l-8.038-3.725a5.789 5.789 0 0 0-4.213 0l-8.025 3.719a1.494 1.494 0 0 0-1.038 1.23v.017a1.493 1.493 0 0 0 1.039 1.234zm.023-1.239c0-.156.184-.336.493-.478l8.024-3.721a4.391 4.391 0 0 1 3.189 0l8.026 3.723c.31.144.494.323.494.478s-.156.307-.421.444l-8.094 3.754a4.6 4.6 0 0 1-3.191 0l-8.027-3.719c-.309-.148-.493-.327-.493-.481z" class="prefix__cls-1" data-name="Path 21" transform="translate(-368.423 -10234.48)"/>
    </g>
</svg>
