<svg xmlns="http://www.w3.org/2000/svg" width="23.474" height="23.726" viewBox="0 0 23.474 23.726">
    <g id="prefix__DPOS_VOTING_ICON_WHITE" data-name="DPOS VOTING ICON WHITE" transform="translate(.1 .129)">
        <path id="prefix__DPOS_VOTING_ICON_WHITE-2" d="M408.372 9168.126a3.071 3.071 0 0 0-6.06.076l-4.835.069a6.116 6.116 0 0 0-1.342-3.479l3.629-3.729a3.145 3.145 0 1 0-.728-.723l-3.607 3.707a6.132 6.132 0 0 0-3.787-1.555l-.073-5.112a3.155 3.155 0 1 0-1.027 0l.073 5.146a6.146 6.146 0 1 0 6.837 6.769l4.863-.069a3.078 3.078 0 0 0 6.056-1.1zM399.5 9158.1a2.052 2.052 0 1 1 1.577 2.434 2.051 2.051 0 0 1-1.577-2.434zm-10.214-2.631a2.051 2.051 0 1 1 2.838.607 2.048 2.048 0 0 1-2.834-.603zm2.046 18.146a4.985 4.985 0 0 1-.7-9.922v.058a.6.6 0 0 1 .261-.058h.439a.832.832 0 0 1 .1.008c.03 0 .059-.007.087-.008a1.035 1.035 0 0 1 .138.008v-.048a4.986 4.986 0 0 1-.322 9.962zm15.12-3.225a2.05 2.05 0 1 1 .608-2.835 2.053 2.053 0 0 1-.604 2.839z" data-name="DPOS VOTING ICON WHITE" transform="translate(-385.184 -9151.28)" style="stroke:#000;stroke-width:.2px"/>
    </g>
</svg>
