<svg xmlns="http://www.w3.org/2000/svg" width="18.554" height="18.48" viewBox="0 0 18.554 18.48">
    <defs>
        <style>
            .prefix__cls-1{stroke:#000;stroke-width:.2px}
        </style>
    </defs>
    <g id="prefix__IDENTITY_ICON" data-name="IDENTITY ICON" transform="translate(.1 .1)">
        <path id="prefix__Path_1" d="M391.755 8796.8a.594.594 0 0 1-.6-.628v-2.984a7.986 7.986 0 1 0-15.956 0v2.984a.6.6 0 1 1-1.2 0v-2.984a9.738 9.738 0 0 1 2.756-6.849 8.866 8.866 0 0 1 8.274-2.548 9.5 9.5 0 0 1 7.3 8.666c.018.243.026.488.026.73v2.984a.594.594 0 0 1-.6.629z" class="prefix__cls-1" data-name="Path 1" transform="translate(-374 -8783.592)"/>
        <path id="prefix__Path_2" d="M392.156 8858.562a6.174 6.174 0 0 1-4.955-2.534 6.736 6.736 0 0 1-1.349-4.074v-2.985a2.263 2.263 0 1 0-4.521 0v2.985a6.462 6.462 0 0 1-6.288 6.608.629.629 0 0 1 0-1.255 5.232 5.232 0 0 0 5.088-5.354v-2.985a3.463 3.463 0 1 1 6.92 0v2.985a5.611 5.611 0 0 0 .125 1.174 5.192 5.192 0 0 0 4.961 4.18.628.628 0 0 1 .018 1.255z" class="prefix__cls-1" data-name="Path 2" transform="translate(-374.417 -8840.28)"/>
    </g>
</svg>
