<svg xmlns="http://www.w3.org/2000/svg" width="23.311" height="16.678" viewBox="0 0 23.311 16.678">
    <g id="prefix__Wallet_Icon" data-name="Wallet Icon" transform="translate(.6 .6)">
        <path id="prefix__Path_2122" d="M6622.182-2473.145h5.572c1.357 0 1.411-4.9 0-4.9h-19.325a1.8 1.8 0 0 0-1.747 1.8v11.864a1.814 1.814 0 0 0 1.747 1.816h19.325c1.312 0 1.3-4.9 0-4.9h-5.572a1.449 1.449 0 0 1-1.441-1.466v-2.765a1.433 1.433 0 0 1 1.441-1.449z" data-name="Path 2122" transform="translate(-6606.682 2478.045)" style="fill:none;stroke:#000;stroke-width:1.2px"/>
        <path id="prefix__Path_2123" d="M6856.792-2382.965a1.136 1.136 0 0 0 1.135 1.138 1.133 1.133 0 0 0 1.038-.683 1.138 1.138 0 0 0 .095-.455 1.136 1.136 0 0 0-.3-.773 1.125 1.125 0 0 0-.829-.365 1.136 1.136 0 0 0-1.139 1.138z" data-name="Path 2123" transform="translate(-6840.396 2390.695)"/>
    </g>
</svg>
